<?xml version="1.0" standalone="no"?>
<!DOCTYPE svg PUBLIC "-//W3C//DTD SVG 20010904//EN"
 "http://www.w3.org/TR/2001/REC-SVG-20010904/DTD/svg10.dtd">
<svg version="1.0" xmlns="http://www.w3.org/2000/svg"
 width="512.000000pt" height="512.000000pt" viewBox="0 0 512.000000 512.000000"
 preserveAspectRatio="xMidYMid meet">
<metadata>
Created by potrace 1.11, written by Peter Selinger 2001-2013
</metadata>
<g transform="translate(0.000000,512.000000) scale(0.100000,-0.100000)"
fill="#000000" stroke="none">
<path d="M2140 4752 c-58 -32 -141 -78 -185 -101 -44 -24 -102 -56 -130 -71
-27 -15 -78 -42 -112 -61 l-63 -33 0 -423 0 -423 -37 16 c-58 25 -181 64 -222
70 -20 3 -43 7 -51 10 -28 11 -254 13 -310 4 -30 -5 -68 -12 -85 -14 -96 -16
-254 -80 -355 -146 -96 -62 -122 -83 -192 -154 -165 -165 -262 -355 -306 -601
-12 -66 -8 -305 7 -374 139 -680 844 -1060 1490 -802 29 12 56 19 59 16 10 -9
2 -325 -9 -375 -47 -222 -240 -379 -466 -378 -179 0 -308 73 -420 237 l-31 46
-312 1 -311 1 6 -36 c18 -116 105 -311 187 -419 43 -57 150 -169 198 -207 91
-73 283 -174 360 -190 8 -2 42 -10 75 -18 99 -25 292 -37 360 -23 11 2 45 7
75 11 216 29 479 179 635 362 55 65 155 212 155 228 0 3 8 24 19 48 10 23 23
54 29 70 17 41 49 176 56 232 3 28 6 396 6 820 1 880 1 875 79 982 56 77 158
116 281 109 114 -7 197 -60 244 -156 20 -40 28 -61 43 -120 2 -8 6 -78 8 -155
2 -77 7 -167 10 -199 36 -360 268 -695 592 -856 169 -83 319 -118 502 -114 69
1 142 5 161 8 349 64 622 259 792 566 26 47 88 202 88 220 0 7 -110 10 -332
10 l-331 0 -33 -39 c-19 -21 -57 -54 -86 -74 -197 -129 -440 -106 -604 57
-191 191 -193 486 -3 675 56 56 148 112 209 127 14 4 63 9 109 11 143 9 259
-38 369 -147 l43 -43 325 0 c178 0 326 2 329 5 8 7 -20 88 -60 175 -51 111
-121 209 -216 304 -165 165 -342 259 -574 305 -79 15 -270 21 -332 10 -18 -3
-48 -8 -65 -11 -139 -24 -310 -95 -425 -177 l-42 -30 -33 31 c-79 75 -186 131
-318 167 -101 27 -311 24 -415 -5 -113 -32 -186 -74 -255 -148 l-60 -64 0 656
c0 360 -3 655 -7 655 -5 -1 -55 -27 -113 -58z m-222 -381 c10 -1 12 -23 10
-88 l-3 -88 -75 -1 c-41 0 -80 2 -86 4 -8 2 -12 34 -12 87 -1 84 -1 84 26 87
23 3 91 2 140 -1z m235 -74 c-1 -40 -2 -79 -2 -87 -1 -13 -16 -16 -86 -15 -47
0 -85 3 -86 8 0 4 -1 42 -2 85 l0 77 34 5 c18 3 58 4 89 2 l55 -4 -2 -71z
m-255 -156 l32 -1 0 -88 0 -88 -87 1 -88 1 -1 84 c0 47 3 87 7 90 4 3 29 4 56
3 26 -1 63 -2 81 -2z m253 -13 c0 -10 1 -34 1 -53 0 -19 -1 -52 -1 -73 l-1
-37 -85 0 c-95 0 -86 -10 -87 90 0 80 1 83 25 87 12 2 50 3 85 3 52 0 62 -3
63 -17z m-881 -1001 c147 -37 264 -127 326 -249 76 -149 68 -337 -18 -474
-213 -336 -718 -283 -857 91 -97 260 60 558 330 629 48 12 175 14 219 3z"/>
</g>
</svg>
